<svg width="20" height="27" viewBox="0 0 20 27" fill="none" xmlns="http://www.w3.org/2000/svg">
<path d="M19.4844 11.0419C19.8819 8.38063 17.8556 6.95 15.085 5.99563L15.9837 2.39063L13.7887 1.84375L12.9137 5.35375C12.3375 5.21 11.745 5.07438 11.1562 4.94L12.0375 1.40688L9.84437 0.860001L8.94499 4.46375C8.46749 4.355 7.99874 4.2475 7.54374 4.13438L7.54624 4.12313L4.51999 3.3675L3.93624 5.71125C3.93624 5.71125 5.56437 6.08438 5.52999 6.1075C6.41874 6.32938 6.57999 6.9175 6.55249 7.38375L5.52874 11.4906C5.58999 11.5063 5.66937 11.5288 5.75687 11.5638L5.52562 11.5063L4.08999 17.2594C3.98124 17.5294 3.70562 17.9344 3.08437 17.7806C3.10624 17.8125 1.48937 17.3825 1.48937 17.3825L0.399994 19.895L3.25624 20.6069C3.78749 20.74 4.30812 20.8794 4.81999 21.0106L3.91187 24.6575L6.10374 25.2044L7.00374 21.5969C7.60187 21.7594 8.18312 21.9094 8.75187 22.0506L7.85562 25.6413L10.05 26.1881L10.9581 22.5488C14.7 23.2569 17.5144 22.9712 18.6975 19.5875C19.6519 16.8625 18.6506 15.2906 16.6819 14.265C18.1156 13.9331 19.1956 12.99 19.4837 11.0419H19.4844ZM14.47 18.0725C13.7912 20.7975 9.20374 19.325 7.71562 18.955L8.92062 14.1244C10.4081 14.4956 15.1775 15.2306 14.4706 18.0725H14.47ZM15.1481 11.0025C14.5294 13.4813 10.7106 12.2219 9.47124 11.9131L10.5637 7.53188C11.8031 7.84063 15.7931 8.41688 15.1481 11.0025V11.0025Z" fill="white"/>
</svg>
