<svg width="22" height="19" viewBox="0 0 22 19" fill="none" xmlns="http://www.w3.org/2000/svg">
<path d="M16.2267 6.03333C15.8533 5.82 15.3733 5.82 14.9467 6.03333L11.96 7.79333L9.93334 8.91333L7.00001 10.6733C6.62668 10.8867 6.14668 10.8867 5.72001 10.6733L3.42668 9.28667C3.05334 9.07333 2.78668 8.64667 2.78668 8.16667V5.5C2.78668 5.07333 3.00001 4.64667 3.42668 4.38L5.72001 3.04667C6.09334 2.83333 6.57334 2.83333 7.00001 3.04667L9.29334 4.43333C9.66668 4.64667 9.93334 5.07333 9.93334 5.55333V7.31333L11.96 6.14V4.32667C11.96 3.9 11.7467 3.47333 11.32 3.20667L7.05334 0.700001C6.68001 0.486668 6.20001 0.486668 5.77334 0.700001L1.40001 3.26C0.973343 3.47333 0.76001 3.9 0.76001 4.32667V9.34C0.76001 9.76667 0.973343 10.1933 1.40001 10.46L5.72001 12.9667C6.09334 13.18 6.57334 13.18 7.00001 12.9667L9.93334 11.26L11.96 10.0867L14.8933 8.38C15.2667 8.16667 15.7467 8.16667 16.1733 8.38L18.4667 9.71333C18.84 9.92667 19.1067 10.3533 19.1067 10.8333V13.5C19.1067 13.9267 18.8933 14.3533 18.4667 14.62L16.2267 15.9533C15.8533 16.1667 15.3733 16.1667 14.9467 15.9533L12.6533 14.62C12.28 14.4067 12.0133 13.98 12.0133 13.5V11.7933L9.98668 12.9667V14.7267C9.98668 15.1533 10.2 15.58 10.6267 15.8467L14.9467 18.3533C15.32 18.5667 15.8 18.5667 16.2267 18.3533L20.5467 15.8467C20.92 15.6333 21.1867 15.2067 21.1867 14.7267V9.66C21.1867 9.23333 20.9733 8.80667 20.5467 8.54L16.2267 6.03333Z" fill="white"/>
</svg>
