<svg width="28" height="22" viewBox="0 0 28 22" fill="none" xmlns="http://www.w3.org/2000/svg">
<g clip-path="url(#clip0_2002_248)">
<path d="M5.02128 16.4142C5.18108 16.2547 5.40081 16.1616 5.63385 16.1616H26.7672C27.1534 16.1616 27.3465 16.6269 27.0735 16.8995L22.8988 21.0674C22.739 21.2269 22.5193 21.32 22.2862 21.32H1.15282C0.766639 21.32 0.573549 20.8547 0.846539 20.5821L5.02128 16.4142Z" fill="white"/>
<path d="M5.02128 0.852608C5.18774 0.69307 5.40746 0.600006 5.63385 0.600006H26.7672C27.1534 0.600006 27.3465 1.06533 27.0735 1.33787L22.8988 5.5058C22.739 5.66534 22.5193 5.7584 22.2862 5.7584H1.15282C0.766639 5.7584 0.573549 5.29308 0.846539 5.02054L5.02128 0.852608Z" fill="white"/>
<path d="M22.8988 8.58355C22.739 8.42401 22.5193 8.33095 22.2862 8.33095H1.15282C0.766639 8.33095 0.573549 8.79627 0.846539 9.06881L5.02128 13.2367C5.18108 13.3963 5.40081 13.4893 5.63385 13.4893H26.7672C27.1534 13.4893 27.3465 13.024 27.0735 12.7515L22.8988 8.58355Z" fill="white"/>
</g>
<defs>
<clipPath id="clip0_2002_248">
<rect width="26.48" height="20.72" fill="white" transform="translate(0.719971 0.599998)"/>
</clipPath>
</defs>
</svg>
